<svg data-name="Layer 1" viewBox="0 0 16 16" xmlns="http://www.w3.org/2000/svg"><circle cx="2" cy="4" r="1" fill="#6320EE" class="fill-000000"></circle><circle cx="2" cy="8" r="1" fill="#6320ee" class="fill-000000"></circle><circle cx="2" cy="12" r="1" fill="#6320ee" class="fill-000000"></circle><path d="M14 3H3.722a1.938 1.938 0 0 1 0 2H14a1 1 0 0 0 0-2ZM14 7H3.722a1.938 1.938 0 0 1 0 2H14a1 1 0 0 0 0-2ZM14 11H3.722a1.938 1.938 0 0 1 0 2H14a1 1 0 0 0 0-2Z" fill="#6320ee" class="fill-000000"></path></svg>