<svg data-name="Layer 1" viewBox="0 0 16 16" xmlns="http://www.w3.org/2000/svg"><path d="m14.447 3.105-4-2A1 1 0 0 0 9 2v4a1 1 0 0 0 1.447.895l4-2a1 1 0 0 0 0-1.79ZM14.447 11.105l-4-2A1 1 0 0 0 9 10v4a1 1 0 0 0 1.447.895l4-2a1 1 0 0 0 0-1.79ZM8 3.232A9.01 9.01 0 0 0 1 12v2a1 1 0 0 0 2 0v-2a7.01 7.01 0 0 1 5-6.7ZM3.069 4.836A6.981 6.981 0 0 1 3 4V2a1 1 0 0 0-2 0v2a8.94 8.94 0 0 0 .467 2.842 10.234 10.234 0 0 1 1.602-2.006Z" fill="#6320EE" class="fill-000000"></path><path d="M4.95 8.815a6 6 0 0 0-.814 1.994A8.982 8.982 0 0 0 8 12.768v-2.063a7 7 0 0 1-3.05-1.89Z" fill="#6320ee" class="fill-000000"></path></svg>